# xmcd
# 
# Track frame offsets:
#     150
#     18268
#     34821
#     56992
# 
# Disc length: 1121
# 
# Revision: 0
# Processed by: cddbd v1.5.2PL0 Copyright (c) Steve Scherf et al.
# Submitted via: fre:ac v1.0.31
# 
DISCID=2e045f04
DTITLE=Various Artist - Audiofilskie Zajawki 2012/7-8
DYEAR=2012
DGENRE=Other
TTITLE0=Luxtorpeda - Hymn
TTITLE1=Alone - Time Stop
TTITLE2=Tank - Don`t Dream In The Dark
TTITLE3=Sjón - Out
EXTD=
EXTT0=
EXTT1=
EXTT2=
EXTT3=
PLAYORDER=
